<svg xmlns="http://www.w3.org/2000/svg" viewBox="0 0 512 512" width="512" height="512">
<rect width="512" height="512" fill="#232228"/>
<g stroke-linecap="round" stroke-linejoin="round">
<line x1="236.9" y1="103.0" x2="169.1" y2="142.0" stroke="#e6e9e9" stroke-width="12"/>
<line x1="275.1" y1="103.0" x2="342.9" y2="142.0" stroke="#e6e9e9" stroke-width="12"/>
<line x1="150.0" y1="175.0" x2="150.0" y2="253.0" stroke="#e6e9e9" stroke-width="12"/>
<line x1="362.0" y1="175.0" x2="362.0" y2="253.0" stroke="#e6e9e9" stroke-width="12"/>
<line x1="169.1" y1="286.0" x2="236.9" y2="325.0" stroke="#e6e9e9" stroke-width="12"/>
<line x1="342.9" y1="286.0" x2="275.1" y2="325.0" stroke="#e6e9e9" stroke-width="12"/>
<line x1="256.0" y1="114.0" x2="256.0" y2="188.0" stroke="#e6e9e9" stroke-width="12"/>
<line x1="169.1" y1="164.0" x2="233.5" y2="201.0" stroke="#e6e9e9" stroke-width="12"/>
<line x1="342.9" y1="164.0" x2="278.5" y2="201.0" stroke="#e6e9e9" stroke-width="12"/>
<line x1="169.1" y1="264.0" x2="233.5" y2="227.0" stroke="#e6e9e9" stroke-width="12"/>
<line x1="342.9" y1="264.0" x2="278.5" y2="227.0" stroke="#e6e9e9" stroke-width="12"/>
<line x1="256.0" y1="314.0" x2="256.0" y2="240.0" stroke="#e6e9e9" stroke-width="12"/>
</g>
<circle cx="256" cy="92" r="19" fill="none" stroke="#e6e9e9" stroke-width="12"/>
<circle cx="150" cy="153" r="20" fill="#418b9b"/>
<circle cx="362" cy="153" r="20" fill="#418b9b"/>
<circle cx="150" cy="275" r="19" fill="none" stroke="#e6e9e9" stroke-width="12"/>
<circle cx="362" cy="275" r="20" fill="#418b9b"/>
<circle cx="256" cy="336" r="20" fill="#418b9b"/>
<circle cx="256" cy="214" r="24" fill="#d98f5d"/>
</svg>
